<?xml version="1.0" standalone="no"?>
<!DOCTYPE svg PUBLIC "-//W3C//DTD SVG 20010904//EN"
 "http://www.w3.org/TR/2001/REC-SVG-20010904/DTD/svg10.dtd">
<svg version="1.0" xmlns="http://www.w3.org/2000/svg"
 width="500.000000pt" height="500.000000pt" viewBox="0 0 500.000000 500.000000"
 preserveAspectRatio="xMidYMid meet">

<g transform="translate(0.000000,500.000000) scale(0.100000,-0.100000)"
fill="#000000" stroke="none">
<path d="M0 2500 l0 -2500 2500 0 2500 0 0 2500 0 2500 -2500 0 -2500 0 0
-2500z m2188 1124 c44 -31 17 -104 -39 -104 -30 0 -59 31 -59 62 0 23 35 58
58 58 10 0 28 -7 40 -16z m-1172 -52 c71 -37 95 -128 53 -206 l-20 -39 37 -38
c73 -75 52 -190 -46 -247 -42 -25 -54 -27 -192 -30 l-148 -4 0 289 c0 160 3
293 8 297 4 5 66 6 137 4 108 -3 137 -8 171 -26z m451 -129 c64 -30 114 -139
98 -212 l-6 -29 -107 -6 c-59 -4 -115 -10 -124 -12 -28 -8 -21 -40 14 -69 28
-24 38 -27 83 -22 27 3 59 8 71 12 15 5 23 0 32 -20 18 -39 16 -44 -30 -65
-51 -23 -144 -26 -191 -6 -44 18 -96 71 -118 121 -46 101 -1 243 95 300 50 30
130 33 183 8z m515 7 l48 0 0 -39 c0 -36 -3 -40 -27 -43 -26 -3 -28 -6 -25
-45 7 -85 -34 -146 -125 -187 -23 -10 -40 -22 -38 -26 2 -4 39 -13 82 -20 65
-10 82 -17 110 -45 78 -78 7 -196 -135 -226 -102 -21 -215 10 -240 66 -18 40
-14 89 9 119 18 23 20 31 10 52 -15 33 -13 73 3 103 12 21 11 30 -5 65 -10 23
-19 56 -19 74 0 60 49 130 110 155 8 4 55 5 104 2 49 -3 111 -5 138 -5z m647
-5 c51 -26 66 -74 69 -229 2 -77 1 -154 -3 -173 -6 -31 -8 -33 -49 -33 -41 0
-44 2 -50 31 -3 17 -6 82 -6 145 0 62 -4 124 -10 138 -14 38 -43 49 -82 33
-58 -25 -63 -36 -68 -196 l-5 -146 -46 -3 -46 -3 -6 53 c-9 68 -9 268 -1 336
7 52 7 52 42 52 22 0 40 -7 48 -17 12 -17 15 -17 51 4 45 26 120 30 162 8z
m506 -18 c51 -51 64 -138 48 -334 l-6 -83 -47 0 -47 0 -7 154 c-3 85 -9 162
-12 171 -11 27 -51 37 -89 21 -45 -19 -55 -42 -55 -124 0 -38 -3 -104 -7 -146
l-6 -77 -46 3 -46 3 0 215 0 215 35 3 c24 3 38 -2 47 -14 12 -17 15 -17 56 3
26 14 62 22 96 22 47 1 57 -3 86 -32z m422 16 c61 -29 112 -138 97 -211 l-6
-29 -121 -7 c-67 -4 -126 -11 -131 -16 -13 -13 24 -68 56 -81 27 -11 87 -8
134 6 15 5 23 0 32 -20 18 -39 16 -44 -30 -65 -54 -25 -147 -26 -195 -4 -75
36 -123 111 -131 202 -4 44 0 63 27 116 42 86 99 126 179 126 30 0 70 -7 89
-17z m443 -14 c0 -44 -17 -71 -40 -64 -27 9 -77 -20 -95 -54 -9 -19 -17 -76
-21 -165 l-7 -137 -46 3 -46 3 0 215 0 215 37 3 c29 2 39 -1 48 -18 11 -20 11
-20 48 5 25 17 50 25 79 25 41 0 43 -1 43 -31z m288 11 c46 -21 51 -36 24 -71
-19 -22 -20 -22 -61 -6 -52 21 -64 21 -91 -1 -33 -27 -16 -51 64 -87 97 -45
121 -72 121 -140 0 -60 -25 -97 -82 -121 -64 -27 -170 -13 -220 30 l-27 23 23
31 c21 30 23 31 45 17 59 -39 137 -41 156 -5 17 31 1 49 -75 85 -90 43 -125
81 -125 139 0 48 19 80 64 107 41 25 127 25 184 -1z m-2084 -51 c8 -80 8 -273
0 -333 l-7 -47 -46 3 -46 3 -3 205 c-1 112 0 210 2 217 3 8 23 13 49 13 l44 0
7 -61z m-582 -630 c94 -20 248 -115 248 -153 0 -6 -20 -36 -45 -67 l-45 -57
-81 42 c-71 36 -91 41 -159 44 -128 6 -203 -40 -203 -126 0 -76 37 -107 238
-197 199 -90 267 -139 323 -234 24 -41 27 -56 27 -141 0 -109 -15 -148 -88
-227 -90 -98 -190 -136 -352 -136 -93 0 -122 4 -188 27 -86 29 -166 76 -211
124 l-29 31 26 33 c15 18 39 48 55 67 l28 33 58 -41 c88 -61 156 -84 251 -84
117 -1 187 40 205 118 12 52 -5 99 -48 135 -20 17 -114 68 -208 114 -152 75
-176 91 -226 144 -65 71 -88 128 -88 218 0 127 73 240 194 299 88 43 212 56
318 34z m2077 -4 c81 -20 147 -55 200 -109 l41 -41 -51 -62 -50 -62 -54 38
c-69 49 -128 65 -209 59 -193 -16 -309 -183 -309 -443 1 -158 41 -280 119
-357 109 -109 271 -117 412 -21 l66 46 48 -53 c26 -30 48 -59 48 -66 0 -17
-96 -101 -140 -124 -105 -54 -270 -69 -386 -35 -242 70 -394 302 -394 605 0
199 60 360 179 479 134 135 306 187 480 146z m-901 -11 l52 -7 0 -83 0 -84
-77 0 c-131 -1 -372 -19 -393 -30 -18 -10 -20 -21 -20 -120 0 -94 3 -113 19
-129 19 -19 58 -24 291 -40 l95 -6 5 -41 c3 -22 4 -59 2 -82 -5 -48 12 -43
-229 -61 -154 -12 -169 -15 -177 -38 -11 -27 -17 -238 -8 -268 11 -39 34 -43
297 -53 l210 -7 3 -81 3 -82 -175 -7 c-178 -8 -551 -4 -560 6 -3 3 -11 70 -17
150 -12 143 -6 918 8 1015 4 33 10 44 27 47 35 7 587 7 644 1z"/>
<path d="M817 3503 c-4 -3 -7 -35 -7 -70 l0 -63 60 0 c51 0 65 4 85 25 55 54
13 115 -80 115 -28 0 -55 -3 -58 -7z"/>
<path d="M823 3263 c-9 -3 -13 -30 -13 -84 l0 -79 66 0 c89 0 133 26 134 78 0
36 -18 62 -55 78 -33 14 -107 18 -132 7z"/>
<path d="M1336 3349 c-14 -11 -26 -29 -26 -40 0 -18 6 -20 73 -17 66 3 72 5
69 23 -4 27 -39 55 -67 55 -12 0 -34 -9 -49 -21z"/>
<path d="M1769 3361 c-47 -38 -17 -131 42 -131 28 0 59 36 59 69 0 34 -34 81
-60 81 -10 0 -28 -8 -41 -19z"/>
<path d="M1765 2981 c-39 -8 -42 -49 -5 -69 56 -29 174 8 157 51 -9 24 -84 33
-152 18z"/>
<path d="M3434 3358 c-23 -11 -47 -52 -37 -62 4 -3 39 -6 80 -6 82 0 92 12 48
55 -25 26 -56 31 -91 13z"/>
</g>
</svg>
